<svg width="145" height="36" viewBox="0 0 145 36" fill="none" xmlns="http://www.w3.org/2000/svg">
<path opacity="0.6" d="M5.4 9.09C5.52 9.03 5.65 9 5.79 9H7.41C7.61 9 7.71 9.1 7.71 9.3V29.7C7.71 29.9 7.61 30 7.41 30H5.88C5.68 30 5.58 29.9 5.58 29.7V11.43C5.58 11.39 5.56 11.36 5.52 11.34C5.5 11.32 5.47 11.32 5.43 11.34L2.25 12.63L2.13 12.66C2.01 12.66 1.93 12.58 1.89 12.42L1.74 11.28V11.22C1.74 11.12 1.81 11.02 1.95 10.92L5.4 9.09ZM21.0541 27.99C20.9941 28.09 21.0141 28.14 21.1141 28.14H30.5341C30.7341 28.14 30.8341 28.24 30.8341 28.44V29.7C30.8341 29.9 30.7341 30 30.5341 30H18.5641C18.3641 30 18.2641 29.9 18.2641 29.7V28.44C18.2641 28.3 18.3141 28.18 18.4141 28.08C19.0941 27.28 20.6241 25.4 23.0041 22.44L25.2241 19.68C27.1041 17.3 28.0441 15.45 28.0441 14.13C28.0441 13.07 27.6841 12.22 26.9641 11.58C26.2441 10.94 25.3041 10.62 24.1441 10.62C23.0041 10.62 22.0841 10.95 21.3841 11.61C20.6841 12.25 20.3441 13.1 20.3641 14.16V15.09C20.3641 15.29 20.2641 15.39 20.0641 15.39H18.5041C18.3041 15.39 18.2041 15.29 18.2041 15.09V13.89C18.2441 12.35 18.8141 11.11 19.9141 10.17C21.0341 9.23 22.4441 8.76 24.1441 8.76C25.3441 8.76 26.4041 8.99 27.3241 9.45C28.2441 9.91 28.9541 10.55 29.4541 11.37C29.9541 12.17 30.2041 13.08 30.2041 14.1C30.2041 15.8 29.2641 17.85 27.3841 20.25C26.4041 21.51 24.5141 23.83 21.7141 27.21L21.0541 27.99ZM41.0081 30.3C39.0881 30.3 37.5581 29.75 36.4181 28.65C35.2781 27.55 34.7081 26.08 34.7081 24.24V14.76C34.7081 12.92 35.2781 11.46 36.4181 10.38C37.5581 9.28 39.0881 8.73 41.0081 8.73C42.9481 8.73 44.4981 9.28 45.6581 10.38C46.8181 11.48 47.3981 12.94 47.3981 14.76V24.24C47.3981 26.08 46.8181 27.55 45.6581 28.65C44.4981 29.75 42.9481 30.3 41.0081 30.3ZM41.0081 28.44C42.2881 28.44 43.3181 28.07 44.0981 27.33C44.8781 26.59 45.2681 25.6 45.2681 24.36V14.67C45.2681 13.45 44.8781 12.47 44.0981 11.73C43.3381 10.99 42.3081 10.62 41.0081 10.62C39.7481 10.62 38.7381 10.99 37.9781 11.73C37.2181 12.47 36.8381 13.45 36.8381 14.67V24.36C36.8381 25.6 37.2181 26.59 37.9781 27.33C38.7381 28.07 39.7481 28.44 41.0081 28.44ZM57.971 30.3C56.051 30.3 54.521 29.75 53.381 28.65C52.241 27.55 51.671 26.08 51.671 24.24V14.76C51.671 12.92 52.241 11.46 53.381 10.38C54.521 9.28 56.051 8.73 57.971 8.73C59.911 8.73 61.461 9.28 62.621 10.38C63.781 11.48 64.361 12.94 64.361 14.76V24.24C64.361 26.08 63.781 27.55 62.621 28.65C61.461 29.75 59.911 30.3 57.971 30.3ZM57.971 28.44C59.251 28.44 60.281 28.07 61.061 27.33C61.841 26.59 62.231 25.6 62.231 24.36V14.67C62.231 13.45 61.841 12.47 61.061 11.73C60.301 10.99 59.271 10.62 57.971 10.62C56.711 10.62 55.701 10.99 54.941 11.73C54.181 12.47 53.801 13.45 53.801 14.67V24.36C53.801 25.6 54.181 26.59 54.941 27.33C55.701 28.07 56.711 28.44 57.971 28.44ZM86.9098 22.29C87.1098 22.29 87.2098 22.39 87.2098 22.59V23.91C87.2098 24.11 87.1098 24.21 86.9098 24.21H85.6198C85.5398 24.21 85.4998 24.25 85.4998 24.33V29.7C85.4998 29.9 85.3998 30 85.1998 30H83.6698C83.4698 30 83.3698 29.9 83.3698 29.7V24.33C83.3698 24.25 83.3298 24.21 83.2498 24.21H74.2798C74.0798 24.21 73.9798 24.11 73.9798 23.91V22.8C73.9798 22.7 74.0098 22.58 74.0698 22.44L80.2198 9.21C80.2798 9.07 80.3898 9 80.5498 9H82.1398C82.2398 9 82.3098 9.04 82.3498 9.12C82.4098 9.18 82.4198 9.26 82.3798 9.36L76.4098 22.14C76.3898 22.18 76.3898 22.22 76.4098 22.26C76.4298 22.28 76.4598 22.29 76.4998 22.29H83.2498C83.3298 22.29 83.3698 22.25 83.3698 22.17V17.34C83.3698 17.14 83.4698 17.04 83.6698 17.04H85.1998C85.3998 17.04 85.4998 17.14 85.4998 17.34V22.17C85.4998 22.25 85.5398 22.29 85.6198 22.29H86.9098ZM92.655 30C92.555 30 92.475 29.97 92.415 29.91C92.375 29.83 92.375 29.74 92.415 29.64L99.345 11.01C99.365 10.97 99.365 10.94 99.345 10.92C99.325 10.88 99.295 10.86 99.255 10.86H91.155C91.075 10.86 91.035 10.9 91.035 10.98V12.36C91.035 12.56 90.935 12.66 90.735 12.66H89.505C89.305 12.66 89.205 12.56 89.205 12.36L89.235 9.3C89.235 9.1 89.335 9 89.535 9H101.355C101.555 9 101.655 9.1 101.655 9.3V10.68C101.655 10.76 101.635 10.88 101.595 11.04L94.695 29.76C94.635 29.92 94.515 30 94.335 30H92.655ZM115.955 20.82C116.135 21.7 116.225 22.6 116.225 23.52C116.225 24.5 116.135 25.34 115.955 26.04C115.615 27.32 114.935 28.34 113.915 29.1C112.895 29.84 111.665 30.21 110.225 30.21C108.805 30.21 107.595 29.85 106.595 29.13C105.595 28.41 104.915 27.45 104.555 26.25C104.415 25.81 104.325 25.37 104.285 24.93V24.87C104.285 24.71 104.375 24.63 104.555 24.63H106.145C106.345 24.63 106.455 24.73 106.475 24.93C106.475 25.05 106.515 25.25 106.595 25.53C106.795 26.39 107.205 27.08 107.825 27.6C108.465 28.1 109.255 28.35 110.195 28.35C111.155 28.35 111.955 28.08 112.595 27.54C113.255 27 113.685 26.26 113.885 25.32C114.005 24.86 114.065 24.26 114.065 23.52C114.065 22.84 114.015 22.19 113.915 21.57C113.775 20.65 113.375 19.95 112.715 19.47C112.055 18.99 111.235 18.75 110.255 18.75C109.375 18.75 108.585 18.95 107.885 19.35C107.185 19.75 106.735 20.28 106.535 20.94C106.475 21.12 106.365 21.21 106.205 21.21H104.585C104.385 21.21 104.285 21.11 104.285 20.91V9.3C104.285 9.1 104.385 9 104.585 9H115.085C115.285 9 115.385 9.1 115.385 9.3V10.56C115.385 10.76 115.285 10.86 115.085 10.86H106.535C106.455 10.86 106.415 10.9 106.415 10.98L106.385 18.24C106.385 18.28 106.395 18.31 106.415 18.33C106.455 18.35 106.495 18.34 106.535 18.3C107.035 17.84 107.625 17.49 108.305 17.25C108.985 16.99 109.705 16.86 110.465 16.86C111.885 16.86 113.085 17.21 114.065 17.91C115.045 18.59 115.675 19.56 115.955 20.82ZM131.521 20.28C131.441 20.28 131.401 20.32 131.401 20.4V23.13C131.401 23.21 131.441 23.25 131.521 23.25H139.111C139.311 23.25 139.411 23.35 139.411 23.55V24.06C139.411 24.26 139.311 24.36 139.111 24.36H131.521C131.441 24.36 131.401 24.4 131.401 24.48V29.7C131.401 29.9 131.301 30 131.101 30H130.111C129.911 30 129.811 29.9 129.811 29.7V24.48C129.811 24.4 129.771 24.36 129.691 24.36H127.081C126.881 24.36 126.781 24.26 126.781 24.06V23.55C126.781 23.35 126.881 23.25 127.081 23.25H129.691C129.771 23.25 129.811 23.21 129.811 23.13V20.4C129.811 20.32 129.771 20.28 129.691 20.28H127.081C126.881 20.28 126.781 20.18 126.781 19.98V19.23C126.781 19.03 126.881 18.93 127.081 18.93H129.691C129.771 18.93 129.811 18.89 129.811 18.81V9.24C129.811 9.04 129.911 8.94 130.111 8.94H137.821C139.521 8.94 140.891 9.47 141.931 10.53C142.991 11.57 143.521 12.94 143.521 14.64C143.521 15.76 143.271 16.75 142.771 17.61C142.291 18.45 141.621 19.11 140.761 19.59C139.901 20.05 138.911 20.28 137.791 20.28H131.521ZM131.521 10.38C131.441 10.38 131.401 10.42 131.401 10.5V18.81C131.401 18.89 131.441 18.93 131.521 18.93H137.701C138.981 18.93 140.001 18.54 140.761 17.76C141.541 16.98 141.931 15.95 141.931 14.67C141.931 13.37 141.541 12.33 140.761 11.55C140.001 10.77 138.981 10.38 137.701 10.38H131.521Z" fill="black"/>
<path d="M6 30L138.5 9" stroke="#2F3035"/>
</svg>
